<?xml version="1.0" encoding="utf-8"?>
<!-- Generator: Adobe Illustrator 22.0.1, SVG Export Plug-In . SVG Version: 6.00 Build 0)  -->
<svg version="1.1" id="Layer_1" xmlns="http://www.w3.org/2000/svg" xmlns:xlink="http://www.w3.org/1999/xlink" x="0px" y="0px"
	 viewBox="0 0 869.8 861" style="enable-background:new 0 0 869.8 861;" xml:space="preserve">
<style type="text/css">
	.st0{opacity:8.000000e-02;}
	.st1{fill:#FFD525;}
</style>
<g class="st0">
	<path class="st1" d="M752.4,271.7c-6.3,31.1-5.5,67.2,2.3,104.3c3,14.2,5.7,31.4,8.4,49.8c12.6,83,29.8,195.7,106.6,212.5v7.7
		c-60.4-11.9-86.4-76.6-101.1-144c-14.4-51.6-21-108-29.6-144.3C709.8,234,758.4,115,869.8,173.7v31.7
		c-31.2-15.4-58.5-15.7-79.7-0.8C771.8,217.3,758.8,240.5,752.4,271.7z"/>
	<path class="st1" d="M869.8,748.2v10.5c-28.4-28.9-58.1-50.2-88.5-63.4c-58.6-25.5-133-18.5-205-11.6c-47.6,4.5-92.5,8.8-133.4,4.4
		c-46.6-5-78-14.6-101.9-31.2c-27.6-19-45.3-47.3-55.8-89c-6.6-26.3-18.4-41.9-34.2-45.6c-14-3.2-30,3.6-42.6,18.6
		c-14.4,16.9-26.2,48.3-12.7,81.5c23.2,56.5,85.6,99.1,135.7,133.3c5.1,3.6,10.2,7,15.2,10.4c31.2,21.5,59.5,56,80.1,95h-26.3
		c-16.1-35.7-39-69.3-65.6-94.1c-2.5-1.6-5-3.5-7.5-5.1c-22.1-15.1-46.6-31.9-69.2-50.7c-40.4-29.5-79.7-64-97.4-107.3
		c-28.1-68.2,44.5-138.6,81.9-89.7c3.5-0.1,7,0.1,10.3,1c12.9,3,30.5,14.4,39.7,51.1c10,39.9,26.9,66.7,52.8,84.7
		c22.9,15.8,53.3,25,98.5,29.9c40.1,4.3,84.7,0.1,131.8-4.5c72.8-6.9,148.2-14.1,208.6,12.2C813.6,701.3,842.3,721.3,869.8,748.2z"
		/>
	<path class="st1" d="M869.8,95.7v7.5c-33.8-2.3-69.9-7.7-105.7-13c-76.3-11.2-148.5-22-190-2.5c-25.6,12.1-40.2,27.8-44.7,47.9
		c-12,54.5,53.4,132.5,111,201.4c43.5,51.9,81,96.8,85.7,128.9c5.6,38.5-3.2,68.8-26.2,90.2c-65.7,61.1-226.6,31.7-274.5,21.2
		c-75.8-16.6-114.1-50.6-136.8-121.4c-2.9-8.9-5.4-18.8-8.2-29.2c-12.1-46-27.4-103.2-75.9-117c-38-10.8-64.2-40.1-75.6-84.7
		c-9.5-37.3-8-83.9,4.2-127.9c4.4-15.9,9.8-31.9,15.1-47.5c5.6-16.7,11.2-33.2,15.6-49.6h7.7c-4.6,17.6-10.4,35-16.2,52.2
		c-5.1,15.4-10.6,31.2-14.9,47.1c-12,42.8-13.5,88-4.2,124c7.4,29.2,25.7,66.6,70.4,79.4c52.7,15,68.4,74.4,81,122.3
		c2.7,10.3,5.4,20.1,8.1,28.9c21.7,67.7,58.4,100.4,131.2,116.3C454,576,508,586,563.7,586.2c61.4,0.1,105.4-11.9,130.8-35.5
		c21-19.7,29.2-47.8,24-83.6c-4.4-30-43.1-76.3-84-125.2C575.7,271.7,509.1,192.2,522,134.2c4.9-22.4,21.3-40.1,48.8-53.1
		c43.6-20.5,116.8-9.7,194.3,1.8C800.5,88.1,836.3,93.4,869.8,95.7z"/>
	<path class="st1" d="M590.5,431c-5.4,13.4-14.1,22.7-26,27.5c-31.7,13-79.4-7.8-117.7-24.5c-16.6-7.2-30.8-13.5-40.8-15.7
		c-54.1-11.9-81.4-36.2-97.6-86.8c-2.4-7.6-4.4-15.5-6.5-24c-5.5-22-11-44.9-25.2-60.5c-7-7.7-15.9-11.8-25.3-16.2
		c-11.3-5.3-23.1-10.7-30.7-22.5c-30.2-46.6-3.3-116.2,18.4-172.1c5-12.9,9.8-25.2,13.4-36.2h7.9c-3.8,11.8-9,25.1-14.3,39.1
		c-21,54.4-47.3,122-19.1,165.5c6.5,10,16.7,14.7,27.5,19.8c9.7,4.5,19.9,9.3,27.8,18c15.5,17,21.3,40.8,27,63.7
		c2,8.3,4,16.2,6.3,23.4c15.2,47.6,41,70.5,92.2,81.7c10.7,2.3,25.3,8.8,42.3,16.1c37.1,16.2,83.1,36.2,111.9,24.5
		c10.1-4.1,17.1-11.7,21.9-23.4c14.8-37.1-37.2-105.7-79.1-160.7C480.7,236,460,208.8,452,189.3c-19.9-48.7-20.2-98.8-0.6-141.1
		c8.4-18.1,20.2-34.4,34.9-48.2h11.1c-16.9,14.3-30.3,31.7-39.4,51.3c-18.7,40.3-18.5,88.4,0.8,135c7.8,18.7,29,46.8,51.6,76.6
		C555.6,322.5,606.8,390,590.5,431z"/>
	<path class="st1" d="M418.7,0c-2.3,10.8-3.8,22-5.3,32.9c-5.2,37.2-10.5,75.7-47.1,100.2c-22.2,14.9-36.8,12.6-45.2,8
		c-13.5-7.4-20.5-25.8-19.7-51.6c0.9-30.9,10.3-60.7,21.3-89.5h8c-11.1,29.1-20.8,59-21.8,89.7c-0.6,22.6,5.2,38.9,15.9,44.8
		c9.2,5.1,22.1,2.5,37.4-7.7c33.9-22.7,38.6-57.9,43.8-95.1c1.5-10.5,3-21.3,5.2-31.8H418.7z"/>
	<path class="st1" d="M181.8,764.7c-26.9-43.5-32.5-140.6-89.3-155.6c-45.1-11.8-74.2,29.7-84.4,76.5c-4.1,10.3-6.8,23.1-8,38.1
		l0,0.6c2.1,31.1,14.9,55.3,27.3,78.7c9.9,18.8,19.4,36.7,23.8,57.9h7.8c-4.5-23-14.8-42.4-24.8-61.3c-12-22.6-24.4-46.1-26.7-75.4
		c3.5-41.1,17.9-62.6,44-65.7c9.1-1.1,20,0,32.2,3.2c39.2,10.3,53.7,43,68.9,77.5c5.9,13.4,12.1,27.3,19.8,39.7
		c19.7,31.9,46.5,57.5,73,82.1h64.2C267.4,827.2,212,813.7,181.8,764.7z"/>
	<path class="st1" d="M869.8,427.5v-76C862.3,374.2,862.1,401.7,869.8,427.5z"/>
	<path class="st1" d="M707.3,844.5c-3.3-2.3-6.8-4.2-10.4-5.4c-18.2-6.8-41-0.7-62.3,16.5c-2.1,1.7-4.2,3.5-6.2,5.4h11.5
		c19-15.3,38.8-20.7,54.5-15c3,1.1,6,2.6,8.7,4.6c4.2,2.9,8,6.4,11.4,10.4h9.5C719.2,854.5,713.7,849,707.3,844.5z"/>
	<path class="st1" d="M553.4,802c-7.3-16.2-24.3-31.8-40.1-29.5c-11,1.5-27.2,10.3-34.8,18.7c-8.1,9-6.8,17.6-4.3,23.2
		c6,13.3,24.1,22.9,39.5,26.5c14.9,3.4,28,1.7,35.6-4.7c1.5-1.2,2.8-2.6,3.8-4C558.6,824.6,558.6,813.6,553.4,802z M548.2,828.5
		c-0.8,1-1.7,2-2.7,2.9c-6.1,5.1-17.4,6.3-30.2,3.5c-16.5-3.8-31-13.2-35.4-23c-2.6-5.8-1.5-11.3,3.2-16.6
		c6.6-7.3,21.6-15.5,31-16.8c10-1.4,25.7,8.1,33.7,26C552.1,814.2,552.3,822.8,548.2,828.5z"/>
</g>
</svg>
